<?xml version="1.0" encoding="utf-8"?>
<svg version="1.1" id="Livello_1" xmlns="http://www.w3.org/2000/svg" xmlns:xlink="http://www.w3.org/1999/xlink" x="0px" y="0px"
	 viewBox="0 0 512 512" height="512" width="512" style="enable-background:new 0 0 512 512;" xml:space="preserve">
<style type="text/css">
	.st0{fill:#FFFFFF;}
	.st1{enable-background:new    ;}
</style>
<path class="st0" d="M439.9,512H72.1C32.4,512,0,479.6,0,439.9V72.1C0,32.4,32.4,0,72.1,0h367.8C479.6,0,512,32.4,512,72.1v367.8
	C512,479.6,479.6,512,439.9,512z"/>
<g class="st1">
	<path d="M310.2,401.4H149.6c-6.2,0-8.4-2.3-8.4-6.8c0-3.2,0.9-6.8,3.5-10.4c45-68.4,128.7-188.2,171.5-243.6
		c2.2-3.2,3.5-5.9,3.5-8.1c0-2.7-1.8-4.1-4.4-4.1l-93,1.8c-33.1,0.6-49.8,16.7-59.1,47.7c-4.8,0-8.8-0.9-13.2-2.3
		c3.5-18.5,7.9-44.1,9.7-68.4c16.3,1.4,59.1,3.6,79.8,3.6h97.4c13.2,0,26.9-0.9,32.2-0.9c3.5,0,5.7,1.8,5.7,5c0,5-1.3,8-10.6,20.3
		c-52,68.4-133.1,186-165.3,233.7c-2.2,4.1-3.5,6.8-3.5,9c0,4.1,3.5,6.5,11,6.3l85.1-1.8c48.1-0.9,59.1-25.7,72.7-57.6
		c5.7,0,10.6,1.4,13.7,2.3c-5.3,23.4-9.7,50-11.9,75.2C366,402.3,322.1,401.4,310.2,401.4z"/>
</g>
</svg>
